<svg width="250" height="50" viewBox="0 0 250 50" fill="none" xmlns="http://www.w3.org/2000/svg">
<rect width="250" height="50" fill="#F0EEEE"/>
<path d="M103.773 19.6136V18.3636H112.5V19.6136H108.841V30H107.432V19.6136H103.773ZM116.773 30.1818C115.985 30.1818 115.294 29.9943 114.699 29.6193C114.108 29.2443 113.646 28.7197 113.312 28.0455C112.983 27.3712 112.818 26.5833 112.818 25.6818C112.818 24.7727 112.983 23.9792 113.312 23.3011C113.646 22.6231 114.108 22.0966 114.699 21.7216C115.294 21.3466 115.985 21.1591 116.773 21.1591C117.561 21.1591 118.25 21.3466 118.841 21.7216C119.436 22.0966 119.898 22.6231 120.227 23.3011C120.561 23.9792 120.727 24.7727 120.727 25.6818C120.727 26.5833 120.561 27.3712 120.227 28.0455C119.898 28.7197 119.436 29.2443 118.841 29.6193C118.25 29.9943 117.561 30.1818 116.773 30.1818ZM116.773 28.9773C117.371 28.9773 117.864 28.8239 118.25 28.517C118.636 28.2102 118.922 27.8068 119.108 27.3068C119.294 26.8068 119.386 26.2652 119.386 25.6818C119.386 25.0985 119.294 24.5549 119.108 24.0511C118.922 23.5473 118.636 23.1402 118.25 22.8295C117.864 22.5189 117.371 22.3636 116.773 22.3636C116.174 22.3636 115.682 22.5189 115.295 22.8295C114.909 23.1402 114.623 23.5473 114.438 24.0511C114.252 24.5549 114.159 25.0985 114.159 25.6818C114.159 26.2652 114.252 26.8068 114.438 27.3068C114.623 27.8068 114.909 28.2102 115.295 28.517C115.682 28.8239 116.174 28.9773 116.773 28.9773ZM131.047 30H127.456V18.3636H131.206C132.335 18.3636 133.301 18.5966 134.104 19.0625C134.907 19.5246 135.522 20.1894 135.95 21.0568C136.378 21.9205 136.592 22.9545 136.592 24.1591C136.592 25.3712 136.376 26.4148 135.945 27.2898C135.513 28.161 134.884 28.8314 134.058 29.3011C133.232 29.767 132.229 30 131.047 30ZM128.865 28.75H130.956C131.918 28.75 132.715 28.5644 133.348 28.1932C133.981 27.822 134.452 27.2936 134.763 26.608C135.073 25.9223 135.229 25.1061 135.229 24.1591C135.229 23.2197 135.075 22.411 134.768 21.733C134.462 21.0511 134.003 20.5284 133.393 20.1648C132.784 19.7973 132.024 19.6136 131.115 19.6136H128.865V28.75ZM142.32 30.1818C141.532 30.1818 140.84 29.9943 140.246 29.6193C139.655 29.2443 139.193 28.7197 138.859 28.0455C138.53 27.3712 138.365 26.5833 138.365 25.6818C138.365 24.7727 138.53 23.9792 138.859 23.3011C139.193 22.6231 139.655 22.0966 140.246 21.7216C140.84 21.3466 141.532 21.1591 142.32 21.1591C143.107 21.1591 143.797 21.3466 144.388 21.7216C144.982 22.0966 145.445 22.6231 145.774 23.3011C146.107 23.9792 146.274 24.7727 146.274 25.6818C146.274 26.5833 146.107 27.3712 145.774 28.0455C145.445 28.7197 144.982 29.2443 144.388 29.6193C143.797 29.9943 143.107 30.1818 142.32 30.1818ZM142.32 28.9773C142.918 28.9773 143.411 28.8239 143.797 28.517C144.183 28.2102 144.469 27.8068 144.655 27.3068C144.84 26.8068 144.933 26.2652 144.933 25.6818C144.933 25.0985 144.84 24.5549 144.655 24.0511C144.469 23.5473 144.183 23.1402 143.797 22.8295C143.411 22.5189 142.918 22.3636 142.32 22.3636C141.721 22.3636 141.229 22.5189 140.842 22.8295C140.456 23.1402 140.17 23.5473 139.984 24.0511C139.799 24.5549 139.706 25.0985 139.706 25.6818C139.706 26.2652 139.799 26.8068 139.984 27.3068C140.17 27.8068 140.456 28.2102 140.842 28.517C141.229 28.8239 141.721 28.9773 142.32 28.9773Z" fill="black"/>
<path d="M166.432 8.21606L169.35 9.72006L157.161 33.3619L154.244 31.8579L166.432 8.21606Z" fill="#070707"/>
<path d="M167.279 6.45867C167.694 5.65307 168.684 5.33668 169.49 5.752C170.295 6.16731 170.612 7.15706 170.196 7.96266L169.677 8.97022L166.76 7.46623L167.279 6.45867Z" fill="#070707"/>
<path d="M153.936 32.4612L156.853 33.9652L156.453 34.7407L153.536 33.2367L153.936 32.4612Z" fill="#070707"/>
<path d="M154.487 34.9437L153.498 33.3772L156.336 34.8194L154.487 34.9437Z" fill="black"/>
<path d="M152 37C145.5 39.3333 133.1 42.1 135.5 34.5C138.5 25 120.5 50.5 122.5 42C124.5 33.5 125.5 32 120 37C114.5 42 118.5 39 115 34.5C111.5 30 114 42.5 109.5 39C105 35.5 92 38.5 93.5 33.5C95 28.5 90.5 36 90 33.5C89.5 31 82.5 36 78.5 29" stroke="black"/>
</svg>
