<svg width="250" height="50" viewBox="0 0 250 50" fill="none" xmlns="http://www.w3.org/2000/svg">
<g clip-path="url(#clip0_16_3)">
<rect width="250" height="50" fill="#F0EEEE"/>
<rect width="125" height="50" transform="translate(125)" fill="#F0EEEE"/>
<rect x="125.5" y="7.5" width="32" height="35" rx="4.5" stroke="black"/>
<g clip-path="url(#clip1_16_3)">
<line x1="131.354" y1="11.6464" x2="133.354" y2="13.6464" stroke="black"/>
<line x1="132.646" y1="13.6464" x2="137.646" y2="8.64645" stroke="black"/>
</g>
<rect x="129.5" y="9.5" width="7" height="6" rx="1.5" stroke="black"/>
<g clip-path="url(#clip2_16_3)">
<line x1="131.354" y1="19.6464" x2="133.354" y2="21.6464" stroke="black"/>
<line x1="132.646" y1="21.6464" x2="137.646" y2="16.6464" stroke="black"/>
</g>
<rect x="129.5" y="17.5" width="7" height="6" rx="1.5" stroke="black"/>
<path d="M138 21H154" stroke="black"/>
<path d="M138 13H154" stroke="black"/>
<g clip-path="url(#clip3_16_3)">
<line x1="131.354" y1="28.6464" x2="133.354" y2="30.6464" stroke="black"/>
<line x1="132.646" y1="30.6464" x2="137.646" y2="25.6464" stroke="black"/>
</g>
<rect x="129.5" y="26.5" width="7" height="6" rx="1.5" stroke="black"/>
<path d="M138 30H154" stroke="black"/>
<rect x="129.5" y="34.5" width="7" height="6" rx="1.5" stroke="black"/>
<path d="M138 38H154" stroke="black"/>
<g clip-path="url(#clip4_16_3)">
<rect width="125" height="50" fill="#F0EEEE"/>
<path d="M76.5682 20.392V18.3636H86.125V20.392H82.5625V30H80.1307V20.392H76.5682ZM90.331 30.1705C89.4484 30.1705 88.6851 29.983 88.0412 29.608C87.401 29.2292 86.9067 28.7027 86.5582 28.0284C86.2098 27.3504 86.0355 26.5644 86.0355 25.6705C86.0355 24.7689 86.2098 23.9811 86.5582 23.3068C86.9067 22.6288 87.401 22.1023 88.0412 21.7273C88.6851 21.3485 89.4484 21.1591 90.331 21.1591C91.2135 21.1591 91.9749 21.3485 92.6151 21.7273C93.259 22.1023 93.7552 22.6288 94.1037 23.3068C94.4522 23.9811 94.6264 24.7689 94.6264 25.6705C94.6264 26.5644 94.4522 27.3504 94.1037 28.0284C93.7552 28.7027 93.259 29.2292 92.6151 29.608C91.9749 29.983 91.2135 30.1705 90.331 30.1705ZM90.3423 28.2955C90.7438 28.2955 91.0791 28.1818 91.348 27.9545C91.617 27.7235 91.8196 27.4091 91.956 27.0114C92.0961 26.6136 92.1662 26.161 92.1662 25.6534C92.1662 25.1458 92.0961 24.6932 91.956 24.2955C91.8196 23.8977 91.617 23.5833 91.348 23.3523C91.0791 23.1212 90.7438 23.0057 90.3423 23.0057C89.937 23.0057 89.5961 23.1212 89.3196 23.3523C89.0469 23.5833 88.8404 23.8977 88.7003 24.2955C88.5639 24.6932 88.4957 25.1458 88.4957 25.6534C88.4957 26.161 88.5639 26.6136 88.7003 27.0114C88.8404 27.4091 89.0469 27.7235 89.3196 27.9545C89.5961 28.1818 89.937 28.2955 90.3423 28.2955ZM101.638 24.2614V26.1818H96.331V24.2614H101.638ZM107.871 30H103.746V18.3636H107.905C109.075 18.3636 110.083 18.5966 110.928 19.0625C111.772 19.5246 112.422 20.1894 112.876 21.0568C113.335 21.9242 113.564 22.9621 113.564 24.1705C113.564 25.3826 113.335 26.4242 112.876 27.2955C112.422 28.1667 111.768 28.8352 110.916 29.3011C110.068 29.767 109.053 30 107.871 30ZM106.206 27.892H107.768C108.496 27.892 109.107 27.7633 109.604 27.5057C110.104 27.2443 110.479 26.8409 110.729 26.2955C110.982 25.7462 111.109 25.0379 111.109 24.1705C111.109 23.3106 110.982 22.608 110.729 22.0625C110.479 21.517 110.106 21.1155 109.609 20.858C109.113 20.6004 108.501 20.4716 107.774 20.4716H106.206V27.892ZM119.284 30.1705C118.402 30.1705 117.638 29.983 116.994 29.608C116.354 29.2292 115.86 28.7027 115.511 28.0284C115.163 27.3504 114.989 26.5644 114.989 25.6705C114.989 24.7689 115.163 23.9811 115.511 23.3068C115.86 22.6288 116.354 22.1023 116.994 21.7273C117.638 21.3485 118.402 21.1591 119.284 21.1591C120.167 21.1591 120.928 21.3485 121.568 21.7273C122.212 22.1023 122.708 22.6288 123.057 23.3068C123.405 23.9811 123.58 24.7689 123.58 25.6705C123.58 26.5644 123.405 27.3504 123.057 28.0284C122.708 28.7027 122.212 29.2292 121.568 29.608C120.928 29.983 120.167 30.1705 119.284 30.1705ZM119.295 28.2955C119.697 28.2955 120.032 28.1818 120.301 27.9545C120.57 27.7235 120.773 27.4091 120.909 27.0114C121.049 26.6136 121.119 26.161 121.119 25.6534C121.119 25.1458 121.049 24.6932 120.909 24.2955C120.773 23.8977 120.57 23.5833 120.301 23.3523C120.032 23.1212 119.697 23.0057 119.295 23.0057C118.89 23.0057 118.549 23.1212 118.273 23.3523C118 23.5833 117.794 23.8977 117.653 24.2955C117.517 24.6932 117.449 25.1458 117.449 25.6534C117.449 26.161 117.517 26.6136 117.653 27.0114C117.794 27.4091 118 27.7235 118.273 27.9545C118.549 28.1818 118.89 28.2955 119.295 28.2955Z" fill="black"/>
</g>
</g>
<defs>
<clipPath id="clip0_16_3">
<rect width="250" height="50" fill="white"/>
</clipPath>
<clipPath id="clip1_16_3">
<rect x="129" y="9" width="8" height="7" rx="2" fill="white"/>
</clipPath>
<clipPath id="clip2_16_3">
<rect x="129" y="17" width="8" height="7" rx="2" fill="white"/>
</clipPath>
<clipPath id="clip3_16_3">
<rect x="129" y="26" width="8" height="7" rx="2" fill="white"/>
</clipPath>
<clipPath id="clip4_16_3">
<rect width="125" height="50" fill="white"/>
</clipPath>
</defs>
</svg>
